<svg id="logo" xmlns="http://www.w3.org/2000/svg" xmlns:xlink="http://www.w3.org/1999/xlink" width="150.653" height="100" viewBox="0 0 150.653 100">
  <defs>
    <clipPath id="clip-path">
      <rect id="長方形_78" data-name="長方形 78" width="150.653" height="100" fill="none"/>
    </clipPath>
  </defs>
  <g id="グループ_31" data-name="グループ 31" clip-path="url(#clip-path)">
    <path id="パス_284" data-name="パス 284" d="M13.138,69.826c0,7.447-2.868,13.483-6.405,13.483S.327,77.273.327,69.826,3.194,56.343,6.732,56.343s6.405,6.037,6.405,13.483" transform="translate(-0.028 -4.778)" fill="#1a1311"/>
    <path id="パス_285" data-name="パス 285" d="M6.7,83.582C3.007,83.582,0,77.4,0,69.8S3.007,56.016,6.7,56.016,13.41,62.2,13.41,69.8,10.4,83.582,6.7,83.582m0-26.967C3.338,56.615.6,62.529.6,69.8S3.338,82.983,6.7,82.983s6.106-5.914,6.106-13.184S10.072,56.615,6.7,56.615" transform="translate(0 -4.751)" fill="#1a1311"/>
    <path id="パス_286" data-name="パス 286" d="M59.731,68.548a26.39,26.39,0,1,1-26.39-26.39,26.39,26.39,0,0,1,26.39,26.39" transform="translate(-0.589 -3.575)" fill="#fba518"/>
    <path id="パス_287" data-name="パス 287" d="M33.894,89.61c-10.56,0-17.805-6.571-20.4-18.5A.965.965,0,0,1,15.38,70.7c1.684,7.747,6.264,16.982,18.513,16.982,9.759,0,15.3-5.093,18.524-17.03a.965.965,0,1,1,1.862.5C50.831,83.919,44.544,89.61,33.894,89.61" transform="translate(-1.143 -5.932)" fill="#1a1311"/>
    <path id="パス_288" data-name="パス 288" d="M12.279,72.069a.965.965,0,0,1-.318-1.875,10.933,10.933,0,0,1,4.875-.42.964.964,0,1,1-.442,1.877,9.431,9.431,0,0,0-3.8.364.971.971,0,0,1-.318.054" transform="translate(-0.96 -5.908)" fill="#1a1311"/>
    <path id="パス_289" data-name="パス 289" d="M135.638,56.118A44.838,44.838,0,1,1,90.8,11.281a44.838,44.838,0,0,1,44.838,44.837" transform="translate(-3.898 -0.957)" fill="#fff"/>
    <path id="パス_290" data-name="パス 290" d="M152.573,65.761a.964.964,0,0,1-.69-1.637,5.968,5.968,0,0,0-.1-8.43.964.964,0,1,1,1.347-1.38,7.9,7.9,0,0,1,.137,11.158.962.962,0,0,1-.69.289" transform="translate(-12.848 -4.583)" fill="#d01"/>
    <path id="パス_291" data-name="パス 291" d="M155.933,67.88a.965.965,0,0,1-.69-1.638,9.324,9.324,0,0,0-.163-13.17.965.965,0,0,1,1.348-1.381,11.245,11.245,0,0,1,.195,15.9.963.963,0,0,1-.69.29" transform="translate(-13.128 -4.361)" fill="#d01"/>
    <path id="パス_292" data-name="パス 292" d="M159.026,70.383a.964.964,0,0,1-.69-1.637,13.275,13.275,0,0,0-.232-18.773.964.964,0,0,1,1.346-1.381,15.2,15.2,0,0,1,.265,21.5.962.962,0,0,1-.69.29" transform="translate(-13.384 -4.098)" fill="#d01"/>
    <path id="パス_293" data-name="パス 293" d="M132.847,56.4A41.764,41.764,0,1,1,91.084,14.64,41.764,41.764,0,0,1,132.847,56.4" transform="translate(-4.183 -1.242)" fill="#0099db"/>
    <path id="パス_294" data-name="パス 294" d="M124.14,88.791c-7.758-5.4-19.525-8.5-32.284-8.5s-24.524,3.1-32.282,8.5l-1.549-2.228c8.2-5.709,20.532-8.983,33.832-8.983s25.633,3.275,33.834,8.986Z" transform="translate(-4.921 -6.579)" fill="#fff"/>
    <path id="パス_295" data-name="パス 295" d="M91.935,40.642c-12.769,0-24.786-3.063-32.97-8.4l1.482-2.271c7.755,5.06,19.232,7.962,31.488,7.962,12.23,0,23.692-2.892,31.448-7.937l1.479,2.275c-8.185,5.322-20.185,8.375-32.927,8.375" transform="translate(-5.001 -2.541)" fill="#fff"/>
    <path id="パス_296" data-name="パス 296" d="M92.681,99.462c-13.527,0-24.532-19.375-24.532-43.191S79.154,13.08,92.681,13.08s24.533,19.375,24.533,43.191S106.207,99.462,92.681,99.462m0-83.526c-11.952,0-21.675,18.094-21.675,40.335s9.723,40.335,21.675,40.335,21.676-18.094,21.676-40.335-9.724-40.335-21.676-40.335" transform="translate(-5.78 -1.109)" fill="#fff"/>
    <path id="パス_297" data-name="パス 297" d="M135.335,57.89h-5.189c0-29.059-27.111-52.7-60.435-52.7-31.351,0-57.216,20.5-60.165,47.676L4.389,52.3c1.553-14.316,9.075-27.548,21.18-37.257A70.6,70.6,0,0,1,69.712,0C105.9,0,135.335,25.969,135.335,57.89" transform="translate(-0.372 0)" fill="#1a1311"/>
    <rect id="長方形_76" data-name="長方形 76" width="2.856" height="86.697" transform="translate(85.473 11.732)" fill="#fff"/>
    <rect id="長方形_77" data-name="長方形 77" width="86.697" height="2.856" transform="translate(43.553 53.652)" fill="#fff"/>
    <path id="パス_298" data-name="パス 298" d="M148.492,58.872c0,8.349-3.9,15.118-8.712,15.118s-8.711-6.769-8.711-15.118,3.9-15.116,8.711-15.116,8.712,6.769,8.712,15.116" transform="translate(-11.116 -3.711)" fill="#1a1311"/>
    <path id="パス_299" data-name="パス 299" d="M139.747,74.325c-5.008,0-9.082-6.947-9.082-15.486s4.074-15.487,9.082-15.487,9.081,6.947,9.081,15.487-4.074,15.486-9.081,15.486m0-30.233c-4.6,0-8.342,6.616-8.342,14.747s3.742,14.746,8.342,14.746,8.341-6.615,8.341-14.746-3.742-14.747-8.341-14.747" transform="translate(-11.082 -3.677)" fill="#1a1311"/>
  </g>
</svg>
